<mxfile host="65bd71144e">
    <diagram id="HuZxwonWBTdEJd0rp4fN" name="overview">
        <mxGraphModel dx="1268" dy="908" grid="1" gridSize="10" guides="1" tooltips="1" connect="1" arrows="1" fold="1" page="1" pageScale="1" pageWidth="850" pageHeight="1100" math="0" shadow="0">
            <root>
                <mxCell id="0"/>
                <mxCell id="1" parent="0"/>
                <mxCell id="26" style="edgeStyle=none;html=1;entryX=0;entryY=0.5;entryDx=0;entryDy=0;entryPerimeter=0;strokeColor=#007FFF;fontColor=#808080;" parent="1" source="2" target="15" edge="1">
                    <mxGeometry relative="1" as="geometry"/>
                </mxCell>
                <mxCell id="2" value="Analytical ETL" style="shape=process;whiteSpace=wrap;html=1;backgroundOutline=1;strokeColor=#007FFF;fontColor=#808080;" parent="1" vertex="1">
                    <mxGeometry x="590" y="100" width="120" height="60" as="geometry"/>
                </mxCell>
                <mxCell id="28" style="edgeStyle=none;html=1;entryX=0;entryY=0.5;entryDx=0;entryDy=0;entryPerimeter=0;strokeColor=#007FFF;fontColor=#808080;" parent="1" source="3" target="14" edge="1">
                    <mxGeometry relative="1" as="geometry"/>
                </mxCell>
                <mxCell id="3" value="EOD Load &lt;br&gt;(Accept)" style="shape=process;whiteSpace=wrap;html=1;backgroundOutline=1;strokeColor=#007FFF;fontColor=#808080;" parent="1" vertex="1">
                    <mxGeometry x="890" y="100" width="120" height="60" as="geometry"/>
                </mxCell>
                <mxCell id="19" style="edgeStyle=none;html=1;entryX=0;entryY=0.5;entryDx=0;entryDy=0;strokeColor=#007FFF;fontColor=#808080;" parent="1" source="4" target="9" edge="1">
                    <mxGeometry relative="1" as="geometry"/>
                </mxCell>
                <mxCell id="20" style="edgeStyle=none;html=1;entryX=0;entryY=0.5;entryDx=0;entryDy=0;strokeColor=#007FFF;fontColor=#808080;" parent="1" source="4" target="10" edge="1">
                    <mxGeometry relative="1" as="geometry"/>
                </mxCell>
                <mxCell id="4" value="Ingestion &lt;br&gt;(csv)" style="shape=process;whiteSpace=wrap;html=1;backgroundOutline=1;strokeColor=#007FFF;fontColor=#808080;" parent="1" vertex="1">
                    <mxGeometry x="170" y="30" width="120" height="60" as="geometry"/>
                </mxCell>
                <mxCell id="22" style="edgeStyle=none;html=1;entryX=0;entryY=0.5;entryDx=0;entryDy=0;strokeColor=#007FFF;fontColor=#808080;" parent="1" source="5" target="13" edge="1">
                    <mxGeometry relative="1" as="geometry"/>
                </mxCell>
                <mxCell id="23" style="edgeStyle=none;html=1;entryX=0;entryY=0.5;entryDx=0;entryDy=0;strokeColor=#007FFF;fontColor=#808080;" parent="1" source="5" target="12" edge="1">
                    <mxGeometry relative="1" as="geometry"/>
                </mxCell>
                <mxCell id="5" value="Ingestion &lt;br&gt;(json)" style="shape=process;whiteSpace=wrap;html=1;backgroundOutline=1;strokeColor=#007FFF;fontColor=#808080;" parent="1" vertex="1">
                    <mxGeometry x="170" y="190" width="120" height="60" as="geometry"/>
                </mxCell>
                <mxCell id="6" value="rejected files" style="rounded=1;whiteSpace=wrap;html=1;strokeColor=#007FFF;fontColor=#808080;" parent="1" vertex="1">
                    <mxGeometry x="460" y="110" width="80" height="40" as="geometry"/>
                </mxCell>
                <mxCell id="18" style="edgeStyle=none;html=1;entryX=0;entryY=0.5;entryDx=0;entryDy=0;strokeColor=#007FFF;fontColor=#808080;" parent="1" source="7" target="4" edge="1">
                    <mxGeometry relative="1" as="geometry"/>
                </mxCell>
                <mxCell id="7" value="source1.csv" style="rounded=1;whiteSpace=wrap;html=1;strokeColor=#007FFF;fontColor=#808080;" parent="1" vertex="1">
                    <mxGeometry x="50" y="40" width="80" height="40" as="geometry"/>
                </mxCell>
                <mxCell id="21" style="edgeStyle=none;html=1;strokeColor=#007FFF;fontColor=#808080;" parent="1" source="8" target="5" edge="1">
                    <mxGeometry relative="1" as="geometry"/>
                </mxCell>
                <mxCell id="8" value="source2.json" style="rounded=1;whiteSpace=wrap;html=1;strokeColor=#007FFF;fontColor=#808080;" parent="1" vertex="1">
                    <mxGeometry x="50" y="200" width="80" height="40" as="geometry"/>
                </mxCell>
                <mxCell id="24" style="edgeStyle=none;html=1;entryX=0;entryY=0;entryDx=0;entryDy=0;strokeColor=#007FFF;fontColor=#808080;" parent="1" source="9" target="2" edge="1">
                    <mxGeometry relative="1" as="geometry"/>
                </mxCell>
                <mxCell id="9" value="Accepted&lt;br&gt;CSV" style="rounded=1;whiteSpace=wrap;html=1;strokeColor=#007FFF;fontColor=#808080;" parent="1" vertex="1">
                    <mxGeometry x="340" y="15" width="80" height="40" as="geometry"/>
                </mxCell>
                <mxCell id="16" style="edgeStyle=none;html=1;entryX=0;entryY=0.25;entryDx=0;entryDy=0;strokeColor=#007FFF;fontColor=#808080;" parent="1" source="10" target="6" edge="1">
                    <mxGeometry relative="1" as="geometry"/>
                </mxCell>
                <mxCell id="10" value="Rejected&lt;br&gt;CSV" style="rounded=1;whiteSpace=wrap;html=1;strokeColor=#007FFF;fontColor=#808080;" parent="1" vertex="1">
                    <mxGeometry x="340" y="65" width="80" height="40" as="geometry"/>
                </mxCell>
                <mxCell id="25" style="edgeStyle=none;html=1;entryX=0;entryY=1;entryDx=0;entryDy=0;strokeColor=#007FFF;fontColor=#808080;" parent="1" source="12" target="2" edge="1">
                    <mxGeometry relative="1" as="geometry"/>
                </mxCell>
                <mxCell id="12" value="Accepted&lt;br&gt;JSON" style="rounded=1;whiteSpace=wrap;html=1;strokeColor=#007FFF;fontColor=#808080;" parent="1" vertex="1">
                    <mxGeometry x="340" y="225" width="80" height="40" as="geometry"/>
                </mxCell>
                <mxCell id="17" style="edgeStyle=none;html=1;entryX=0;entryY=0.75;entryDx=0;entryDy=0;strokeColor=#007FFF;fontColor=#808080;" parent="1" source="13" target="6" edge="1">
                    <mxGeometry relative="1" as="geometry"/>
                </mxCell>
                <mxCell id="13" value="Rejected&lt;br&gt;JSON" style="rounded=1;whiteSpace=wrap;html=1;strokeColor=#007FFF;fontColor=#808080;" parent="1" vertex="1">
                    <mxGeometry x="340" y="175" width="80" height="40" as="geometry"/>
                </mxCell>
                <mxCell id="14" value="EOD Trade Quote" style="shape=cylinder3;whiteSpace=wrap;html=1;boundedLbl=1;backgroundOutline=1;size=15;strokeColor=#007FFF;fontColor=#808080;" parent="1" vertex="1">
                    <mxGeometry x="1060" y="90" width="60" height="80" as="geometry"/>
                </mxCell>
                <mxCell id="27" style="edgeStyle=none;html=1;strokeColor=#007FFF;fontColor=#808080;" parent="1" source="15" target="3" edge="1">
                    <mxGeometry relative="1" as="geometry"/>
                </mxCell>
                <mxCell id="15" value="quote-trade-analytical" style="shape=cylinder3;whiteSpace=wrap;html=1;boundedLbl=1;backgroundOutline=1;size=15;strokeColor=#007FFF;fontColor=#808080;" parent="1" vertex="1">
                    <mxGeometry x="770" y="90" width="60" height="80" as="geometry"/>
                </mxCell>
            </root>
        </mxGraphModel>
    </diagram>
</mxfile>